<?xml version="1.0" encoding="utf-8"?>
<!-- Generator: Adobe Illustrator 16.0.0, SVG Export Plug-In . SVG Version: 6.00 Build 0)  -->
<!DOCTYPE svg PUBLIC "-//W3C//DTD SVG 1.1//EN" "http://www.w3.org/Graphics/SVG/1.1/DTD/svg11.dtd">
<svg version="1.1" id="Layer_1" xmlns="http://www.w3.org/2000/svg" xmlns:xlink="http://www.w3.org/1999/xlink" x="0px" y="0px"
	 width="140px" height="88.667px" viewBox="0 0 140 88.667" enable-background="new 0 0 140 88.667" xml:space="preserve">
<g>
	<circle fill="#FFFFFF" cx="44.526" cy="84.353" r="3.752"/>
	<circle fill="#FFFFFF" cx="44.526" cy="74.347" r="3.752"/>
	<circle fill="#FFFFFF" cx="44.526" cy="64.341" r="3.752"/>
	<circle fill="#FFFFFF" cx="44.526" cy="54.334" r="3.752"/>
	<circle fill="#FFFFFF" cx="54.532" cy="84.353" r="3.752"/>
	<circle fill="#FFFFFF" cx="54.532" cy="74.347" r="3.752"/>
	<circle fill="#FFFFFF" cx="54.532" cy="64.341" r="3.752"/>
	<circle fill="#FFFFFF" cx="54.532" cy="54.334" r="3.752"/>
	<circle fill="#FFFFFF" cx="54.532" cy="44.329" r="3.752"/>
	<circle fill="#FFFFFF" cx="64.538" cy="64.341" r="3.752"/>
	<circle fill="#FFFFFF" cx="64.538" cy="54.334" r="3.752"/>
	<circle fill="#FFFFFF" cx="64.538" cy="34.323" r="3.752"/>
	<circle fill="#FFFFFF" cx="74.544" cy="64.341" r="3.752"/>
	<circle fill="#FFFFFF" cx="74.544" cy="54.334" r="3.752"/>
	<circle fill="#FFFFFF" cx="74.544" cy="34.323" r="3.752"/>
	<circle fill="#FFFFFF" cx="74.544" cy="24.317" r="3.752"/>
	<circle fill="#FFFFFF" cx="84.55" cy="64.341" r="3.752"/>
	<circle fill="#FFFFFF" cx="84.55" cy="54.334" r="3.752"/>
	<circle fill="#FFFFFF" cx="84.55" cy="44.329" r="3.752"/>
	<circle fill="#FFFFFF" cx="84.55" cy="34.323" r="3.752"/>
	<circle fill="#FFFFFF" cx="94.556" cy="54.334" r="3.752"/>
	<circle fill="#FFFFFF" cx="94.556" cy="44.329" r="3.752"/>
	<path fill="#FFFFFF" d="M47.174,41.67l-5.303,5.309c0.679,0.681,1.618,1.103,2.656,1.103c2.072,0,3.752-1.681,3.752-3.753
		C48.278,43.29,47.856,42.35,47.174,41.67z"/>
	<path fill="#FFFFFF" d="M57.175,31.66l-5.303,5.308c0.68,0.683,1.621,1.107,2.66,1.107c2.072,0,3.752-1.68,3.752-3.752
		C58.285,33.281,57.86,32.34,57.175,31.66z"/>
	<path fill="#FFFFFF" d="M67.181,21.654l-5.303,5.308c0.68,0.684,1.621,1.107,2.66,1.107c2.072,0,3.752-1.68,3.752-3.752
		C68.291,23.275,67.866,22.334,67.181,21.654z"/>
	<path fill="#FFFFFF" d="M93.006,31.66l5.303,5.308c-0.68,0.683-1.621,1.107-2.66,1.107c-2.072,0-3.752-1.68-3.752-3.752
		C91.896,33.281,92.32,32.34,93.006,31.66z"/>
	<path fill="#FFFFFF" d="M83,21.654l5.303,5.308c-0.68,0.684-1.621,1.107-2.66,1.107c-2.072,0-3.752-1.68-3.752-3.752
		C81.891,23.275,82.314,22.334,83,21.654z"/>
	<g>
		<circle fill="#DECC00" cx="24.432" cy="54.334" r="1.751"/>
		<path fill="#DECC00" d="M4.503,66.083c0.928-0.044,1.668-0.804,1.668-1.742c0-0.463-0.183-0.88-0.476-1.193l3.035-3.035
			c-0.342-0.319-0.559-0.771-0.559-1.275c0-0.967,0.784-1.751,1.751-1.751c0.505,0,0.956,0.217,1.275,0.559l2.035-2.034
			c0.313,0.292,0.73,0.476,1.193,0.476c0.967,0,1.751-0.784,1.751-1.752c0-0.462-0.183-0.879-0.476-1.192l3.035-3.035
			c-0.342-0.319-0.559-0.771-0.559-1.275c0-0.967,0.784-1.751,1.751-1.751c0.505,0,0.956,0.217,1.276,0.559l2.034-2.034
			c0.313,0.292,0.73,0.475,1.193,0.475c0.505,0,0.956-0.217,1.275-0.558l2.619,2.619c0.269-0.624,0.887-1.061,1.608-1.061
			c0.968,0,1.751,0.784,1.751,1.751c0,0.722-0.437,1.34-1.06,1.608l2.62,2.619c-0.342,0.319-0.559,0.771-0.559,1.275
			c0,0.968,0.783,1.752,1.751,1.752c0.967,0,1.751-0.784,1.751-1.752c0-0.462-0.183-0.879-0.476-1.192l37.556-37.555
			c0.313,0.292,0.73,0.475,1.192,0.475c0.502,0,0.952-0.214,1.271-0.553l22.587,22.775c0.229-0.7,0.88-1.209,1.657-1.209
			c0.967,0,1.751,0.784,1.751,1.751c0,0.782-0.517,1.437-1.224,1.661c0,0,4.121,4.041,4.121,4.055l4.189-4.418
			c-0.357-0.319-0.584-0.78-0.584-1.298c0-0.967,0.784-1.751,1.752-1.751c0.512,0,0.968,0.223,1.288,0.573l2.028-2.044
			c0.312,0.29,0.727,0.471,1.186,0.471c0.506,0,0.957-0.217,1.276-0.559l2.619,2.619c0.269-0.624,0.887-1.06,1.608-1.06
			c0.967,0,1.751,0.784,1.751,1.751c0,0.722-0.437,1.34-1.06,1.608l2.619,2.619c-0.342,0.319-0.559,0.771-0.559,1.275
			c0,0.968,0.783,1.751,1.75,1.751c0.506,0,0.957-0.217,1.276-0.558l2.619,2.619c0.269-0.624,0.887-1.061,1.608-1.061
			c0.967,0,1.751,0.784,1.751,1.751c0,0.722-0.437,1.34-1.06,1.608l2.619,2.619c-0.342,0.319-0.559,0.771-0.559,1.275
			c0,0.968,0.783,1.752,1.75,1.752c0.506,0,0.957-0.218,1.276-0.559l2.619,2.619c0.269-0.624,0.887-1.061,1.608-1.061v-6.504
			c-0.967,0-1.751-0.784-1.751-1.751c0-0.505,0.217-0.956,0.559-1.275l-7.538-7.538c-0.319,0.342-0.771,0.559-1.275,0.559
			c-0.967,0-1.751-0.784-1.751-1.751c0-0.505,0.217-0.956,0.558-1.276l-7.537-7.538c-0.319,0.342-0.771,0.559-1.275,0.559
			c-0.967,0-1.751-0.784-1.751-1.751c0-0.505,0.217-0.956,0.558-1.276l-7.537-7.538c-0.319,0.341-0.771,0.559-1.275,0.559
			c-0.46,0-0.875-0.181-1.188-0.471l-7.51,7.573c0.271,0.309,0.442,0.709,0.442,1.153c0,0.967-0.784,1.751-1.751,1.751
			c-0.968,0-1.752-0.784-1.752-1.751c0-0.444,0.171-0.844,0.443-1.153l-7.51-7.573c-0.313,0.29-0.729,0.471-1.188,0.471
			c-0.968,0-1.752-0.784-1.752-1.751c0-0.465,0.186-0.885,0.48-1.199l-7.502-7.565c-0.316,0.314-0.752,0.509-1.232,0.509
			c-0.968,0-1.752-0.784-1.752-1.751c0-0.486,0.199-0.925,0.52-1.243L71.229,0c-0.319,0.339-0.769,0.553-1.271,0.553
			c-0.462,0-0.879-0.183-1.193-0.475l-7.537,7.538c0.292,0.313,0.475,0.73,0.475,1.192c0,0.967-0.784,1.751-1.751,1.751
			c-0.462,0-0.879-0.183-1.193-0.476L31.21,37.633c0.292,0.313,0.475,0.73,0.475,1.193c0,0.967-0.783,1.751-1.751,1.751
			c-0.967,0-1.751-0.784-1.751-1.751c0-0.505,0.217-0.956,0.559-1.276l-7.538-7.538c-0.32,0.342-0.771,0.559-1.276,0.559
			c-0.462,0-0.879-0.183-1.192-0.476l-7.538,7.538c0.293,0.313,0.476,0.73,0.476,1.193c0,0.967-0.784,1.751-1.751,1.751
			c-0.462,0-0.879-0.183-1.192-0.476l-7.538,7.538c0.293,0.313,0.476,0.73,0.476,1.192c0,0.938-0.74,1.698-1.668,1.743v6.521
			c0.928,0.044,1.668,0.804,1.668,1.742S0.928,60.536,0,60.581v6.521c0.928,0.044,1.668,0.804,1.668,1.742S0.928,70.542,0,70.586
			v1.038l4.503-4.601V66.083z M109.982,27.069c0.967,0,1.751,0.784,1.751,1.751s-0.784,1.751-1.751,1.751
			c-0.968,0-1.752-0.784-1.752-1.751S109.015,27.069,109.982,27.069z M69.958,7.057c0.967,0,1.75,0.784,1.75,1.751
			c0,0.967-0.783,1.751-1.75,1.751s-1.751-0.784-1.751-1.751C68.208,7.841,68.991,7.057,69.958,7.057z M19.929,37.075
			c0.968,0,1.751,0.784,1.751,1.751s-0.783,1.751-1.751,1.751c-0.967,0-1.751-0.784-1.751-1.751S18.961,37.075,19.929,37.075z
			 M9.923,47.081c0.967,0,1.751,0.784,1.751,1.751s-0.784,1.751-1.751,1.751s-1.751-0.784-1.751-1.751S8.956,47.081,9.923,47.081z"
			/>
		<path fill="#DECC00" d="M134.496,62.59c-0.622,0-1.166,0.327-1.476,0.816l2.075,2.573c0.672-0.246,1.152-0.884,1.152-1.639
			C136.248,63.374,135.464,62.59,134.496,62.59z"/>
	</g>
</g>
</svg>
