<?xml version="1.0" encoding="utf-8"?>
<!-- Generator: Adobe Illustrator 16.0.0, SVG Export Plug-In . SVG Version: 6.00 Build 0)  -->
<!DOCTYPE svg PUBLIC "-//W3C//DTD SVG 1.1//EN" "http://www.w3.org/Graphics/SVG/1.1/DTD/svg11.dtd">
<svg version="1.1" id="Layer_1" xmlns="http://www.w3.org/2000/svg" xmlns:xlink="http://www.w3.org/1999/xlink" x="0px" y="0px"
	 width="47.5px" height="29.938px" viewBox="0 0 47.5 29.938" enable-background="new 0 0 47.5 29.938" xml:space="preserve">
<g>
	<circle fill="#FFFFFF" cx="15.107" cy="28.665" r="1.273"/>
	<circle fill="#FFFFFF" cx="15.107" cy="25.27" r="1.273"/>
	<circle fill="#FFFFFF" cx="15.107" cy="21.875" r="1.273"/>
	<circle fill="#FFFFFF" cx="15.107" cy="18.479" r="1.273"/>
	<circle fill="#FFFFFF" cx="18.502" cy="28.665" r="1.273"/>
	<circle fill="#FFFFFF" cx="18.502" cy="25.27" r="1.273"/>
	<circle fill="#FFFFFF" cx="18.502" cy="21.875" r="1.273"/>
	<circle fill="#FFFFFF" cx="18.502" cy="18.479" r="1.273"/>
	<circle fill="#FFFFFF" cx="18.502" cy="15.084" r="1.273"/>
	<circle fill="#FFFFFF" cx="21.897" cy="21.875" r="1.273"/>
	<circle fill="#FFFFFF" cx="21.897" cy="18.479" r="1.273"/>
	<circle fill="#FFFFFF" cx="21.897" cy="11.69" r="1.273"/>
	<circle fill="#FFFFFF" cx="25.292" cy="21.875" r="1.273"/>
	<circle fill="#FFFFFF" cx="25.292" cy="18.479" r="1.273"/>
	<circle fill="#FFFFFF" cx="25.292" cy="11.69" r="1.273"/>
	<circle fill="#FFFFFF" cx="25.292" cy="8.295" r="1.273"/>
	<circle fill="#FFFFFF" cx="28.687" cy="21.875" r="1.273"/>
	<circle fill="#FFFFFF" cx="28.687" cy="18.479" r="1.273"/>
	<circle fill="#FFFFFF" cx="28.687" cy="15.084" r="1.273"/>
	<circle fill="#FFFFFF" cx="28.687" cy="11.69" r="1.273"/>
	<circle fill="#FFFFFF" cx="32.082" cy="18.479" r="1.273"/>
	<circle fill="#FFFFFF" cx="32.082" cy="15.084" r="1.273"/>
	<path fill="#FFFFFF" d="M16.005,14.183l-1.799,1.801c0.23,0.231,0.549,0.374,0.901,0.374c0.703,0,1.272-0.57,1.272-1.273
		C16.38,14.732,16.237,14.414,16.005,14.183z"/>
	<path fill="#FFFFFF" d="M19.398,10.787L17.6,12.587c0.23,0.232,0.55,0.375,0.902,0.375c0.703,0,1.273-0.57,1.273-1.273
		C19.775,11.336,19.631,11.017,19.398,10.787z"/>
	<path fill="#FFFFFF" d="M22.793,7.392l-1.799,1.801c0.231,0.232,0.55,0.375,0.903,0.375c0.703,0,1.273-0.57,1.273-1.273
		C23.17,7.941,23.026,7.622,22.793,7.392z"/>
	<path fill="#FFFFFF" d="M31.556,10.787l1.799,1.801c-0.23,0.232-0.55,0.375-0.902,0.375c-0.703,0-1.273-0.57-1.273-1.273
		C31.179,11.336,31.323,11.017,31.556,10.787z"/>
	<path fill="#FFFFFF" d="M28.161,7.392l1.799,1.801c-0.23,0.232-0.55,0.375-0.903,0.375c-0.703,0-1.273-0.57-1.273-1.273
		C27.784,7.941,27.928,7.622,28.161,7.392z"/>
	<g>
		<circle fill="#FFFFFF" cx="8.289" cy="18.479" r="0.594"/>
		<path fill="#FFFFFF" d="M1.528,22.466c0.315-0.015,0.566-0.273,0.566-0.591c0-0.157-0.062-0.298-0.162-0.405l1.03-1.03
			c-0.116-0.108-0.189-0.261-0.189-0.433c0-0.328,0.266-0.594,0.594-0.594c0.171,0,0.324,0.074,0.433,0.189l0.69-0.69
			c0.106,0.099,0.248,0.161,0.405,0.161c0.328,0,0.594-0.266,0.594-0.594c0-0.157-0.062-0.298-0.161-0.405l1.03-1.03
			c-0.116-0.108-0.189-0.261-0.189-0.433c0-0.328,0.266-0.594,0.594-0.594c0.171,0,0.324,0.073,0.433,0.189l0.69-0.69
			c0.106,0.099,0.248,0.161,0.404,0.161c0.171,0,0.325-0.074,0.433-0.189l0.889,0.889c0.091-0.212,0.301-0.36,0.545-0.36
			c0.329,0,0.594,0.266,0.594,0.594c0,0.245-0.148,0.455-0.36,0.546l0.889,0.889c-0.116,0.108-0.19,0.262-0.19,0.433
			c0,0.328,0.266,0.594,0.594,0.594s0.594-0.266,0.594-0.594c0-0.157-0.062-0.298-0.162-0.405L24.859,5.333
			c0.106,0.099,0.248,0.161,0.405,0.161c0.17,0,0.323-0.072,0.431-0.188l7.664,7.727c0.078-0.237,0.298-0.41,0.562-0.41
			c0.328,0,0.594,0.266,0.594,0.594c0,0.265-0.175,0.487-0.415,0.563c0,0,1.398,1.371,1.398,1.375l1.421-1.499
			c-0.121-0.108-0.198-0.265-0.198-0.44c0-0.328,0.266-0.594,0.594-0.594c0.174,0,0.328,0.076,0.437,0.194l0.688-0.693
			c0.106,0.098,0.247,0.16,0.402,0.16c0.172,0,0.325-0.074,0.433-0.189l0.889,0.889c0.091-0.212,0.301-0.36,0.546-0.36
			c0.328,0,0.594,0.266,0.594,0.594c0,0.245-0.148,0.455-0.359,0.545l0.889,0.889c-0.116,0.108-0.189,0.262-0.189,0.433
			c0,0.329,0.266,0.594,0.594,0.594c0.171,0,0.325-0.074,0.433-0.189l0.889,0.889c0.091-0.212,0.301-0.36,0.545-0.36
			c0.328,0,0.594,0.266,0.594,0.594c0,0.245-0.148,0.455-0.359,0.546l0.889,0.889c-0.116,0.108-0.189,0.262-0.189,0.433
			c0,0.328,0.266,0.594,0.594,0.594c0.171,0,0.325-0.074,0.433-0.189l0.889,0.889c0.091-0.211,0.301-0.36,0.546-0.36v-2.207
			c-0.328,0-0.594-0.266-0.594-0.594c0-0.171,0.074-0.324,0.19-0.433l-2.558-2.558c-0.108,0.116-0.262,0.189-0.433,0.189
			c-0.328,0-0.594-0.266-0.594-0.594c0-0.171,0.073-0.325,0.189-0.433l-2.557-2.557c-0.108,0.116-0.262,0.189-0.433,0.189
			c-0.328,0-0.594-0.266-0.594-0.594c0-0.171,0.074-0.324,0.189-0.433l-2.558-2.557c-0.108,0.116-0.262,0.189-0.433,0.189
			c-0.156,0-0.297-0.062-0.403-0.16l-2.548,2.569c0.092,0.104,0.15,0.241,0.15,0.391c0,0.328-0.266,0.594-0.594,0.594
			s-0.594-0.266-0.594-0.594c0-0.15,0.058-0.287,0.15-0.391l-2.548-2.569c-0.106,0.098-0.247,0.16-0.403,0.16
			c-0.329,0-0.595-0.266-0.595-0.594c0-0.158,0.063-0.3,0.163-0.407l-2.545-2.566c-0.107,0.106-0.255,0.172-0.418,0.172
			c-0.328,0-0.594-0.266-0.594-0.594c0-0.165,0.067-0.314,0.176-0.421l-2.546-2.567c-0.108,0.115-0.261,0.188-0.431,0.188
			c-0.157,0-0.298-0.062-0.405-0.161l-2.557,2.558c0.099,0.106,0.161,0.248,0.161,0.404c0,0.328-0.266,0.594-0.594,0.594
			c-0.157,0-0.298-0.062-0.404-0.161l-9.347,9.347c0.099,0.106,0.161,0.248,0.161,0.405c0,0.328-0.266,0.594-0.594,0.594
			c-0.328,0-0.594-0.266-0.594-0.594c0-0.171,0.073-0.325,0.189-0.433l-2.558-2.557c-0.108,0.116-0.262,0.189-0.433,0.189
			c-0.157,0-0.298-0.062-0.405-0.162l-2.558,2.558c0.1,0.106,0.162,0.248,0.162,0.405c0,0.328-0.266,0.594-0.594,0.594
			c-0.157,0-0.298-0.062-0.405-0.161l-2.558,2.558c0.1,0.106,0.162,0.248,0.162,0.404c0,0.318-0.251,0.576-0.566,0.592v2.212
			c0.315,0.015,0.566,0.273,0.566,0.591S0.315,20.583,0,20.599v2.212c0.315,0.015,0.566,0.272,0.566,0.591
			c0,0.319-0.251,0.577-0.566,0.592v0.352l1.528-1.561V22.466z M37.315,9.229c0.328,0,0.594,0.266,0.594,0.594
			s-0.266,0.594-0.594,0.594s-0.594-0.266-0.594-0.594S36.987,9.229,37.315,9.229z M23.736,2.439c0.328,0,0.594,0.266,0.594,0.594
			c0,0.328-0.266,0.594-0.594,0.594s-0.594-0.266-0.594-0.594C23.142,2.705,23.408,2.439,23.736,2.439z M6.762,12.624
			c0.328,0,0.594,0.266,0.594,0.594c0,0.328-0.266,0.594-0.594,0.594s-0.594-0.266-0.594-0.594
			C6.167,12.89,6.434,12.624,6.762,12.624z M3.367,16.019c0.328,0,0.594,0.266,0.594,0.594s-0.266,0.594-0.594,0.594
			s-0.594-0.266-0.594-0.594S3.039,16.019,3.367,16.019z"/>
		<path fill="#FFFFFF" d="M45.633,21.281c-0.211,0-0.396,0.111-0.501,0.277l0.704,0.873c0.228-0.083,0.391-0.3,0.391-0.556
			C46.227,21.546,45.961,21.281,45.633,21.281z"/>
	</g>
</g>
</svg>
