<?xml version="1.0" encoding="utf-8"?>
<!-- Generator: Adobe Illustrator 16.0.0, SVG Export Plug-In . SVG Version: 6.00 Build 0)  -->
<!DOCTYPE svg PUBLIC "-//W3C//DTD SVG 1.1//EN" "http://www.w3.org/Graphics/SVG/1.1/DTD/svg11.dtd">
<svg version="1.1" id="Layer_1" xmlns="http://www.w3.org/2000/svg" xmlns:xlink="http://www.w3.org/1999/xlink" x="0px" y="0px"
	 width="140px" height="88.667px" viewBox="0 0 140 88.667" enable-background="new 0 0 140 88.667" xml:space="preserve">
<g>
	<circle fill="#FFFFFF" cx="44.526" cy="83.915" r="3.752"/>
	<circle fill="#FFFFFF" cx="44.526" cy="73.909" r="3.752"/>
	<circle fill="#FFFFFF" cx="44.526" cy="63.903" r="3.752"/>
	<circle fill="#FFFFFF" cx="44.526" cy="53.897" r="3.752"/>
	<circle fill="#FFFFFF" cx="54.532" cy="83.915" r="3.752"/>
	<circle fill="#FFFFFF" cx="54.532" cy="73.909" r="3.752"/>
	<circle fill="#FFFFFF" cx="54.532" cy="63.903" r="3.752"/>
	<circle fill="#FFFFFF" cx="54.532" cy="53.897" r="3.752"/>
	<circle fill="#FFFFFF" cx="54.532" cy="43.891" r="3.752"/>
	<circle fill="#FFFFFF" cx="64.538" cy="63.903" r="3.752"/>
	<circle fill="#FFFFFF" cx="64.538" cy="53.897" r="3.752"/>
	<circle fill="#FFFFFF" cx="64.538" cy="33.885" r="3.752"/>
	<circle fill="#FFFFFF" cx="74.544" cy="63.903" r="3.752"/>
	<circle fill="#FFFFFF" cx="74.544" cy="53.897" r="3.752"/>
	<circle fill="#FFFFFF" cx="74.544" cy="33.885" r="3.752"/>
	<circle fill="#FFFFFF" cx="74.544" cy="23.879" r="3.752"/>
	<circle fill="#FFFFFF" cx="84.55" cy="63.903" r="3.752"/>
	<circle fill="#FFFFFF" cx="84.55" cy="53.897" r="3.752"/>
	<circle fill="#FFFFFF" cx="84.55" cy="43.891" r="3.752"/>
	<circle fill="#FFFFFF" cx="84.55" cy="33.885" r="3.752"/>
	<circle fill="#FFFFFF" cx="94.556" cy="53.897" r="3.752"/>
	<circle fill="#FFFFFF" cx="94.556" cy="43.891" r="3.752"/>
	<path fill="#FFFFFF" d="M47.174,41.233l-5.303,5.309c0.679,0.68,1.618,1.102,2.656,1.102c2.072,0,3.752-1.68,3.752-3.752
		C48.278,42.852,47.856,41.913,47.174,41.233z"/>
	<path fill="#FFFFFF" d="M57.175,31.222l-5.303,5.309c0.68,0.683,1.621,1.106,2.66,1.106c2.072,0,3.752-1.68,3.752-3.752
		C58.285,32.843,57.86,31.902,57.175,31.222z"/>
	<path fill="#FFFFFF" d="M67.181,21.216l-5.303,5.308c0.68,0.684,1.621,1.107,2.66,1.107c2.072,0,3.752-1.68,3.752-3.752
		C68.291,22.837,67.866,21.896,67.181,21.216z"/>
	<path fill="#FFFFFF" d="M93.006,31.222l5.303,5.309c-0.68,0.683-1.621,1.106-2.66,1.106c-2.072,0-3.752-1.68-3.752-3.752
		C91.896,32.843,92.32,31.902,93.006,31.222z"/>
	<path fill="#FFFFFF" d="M83,21.216l5.303,5.308c-0.68,0.684-1.621,1.107-2.66,1.107c-2.072,0-3.752-1.68-3.752-3.752
		C81.891,22.837,82.314,21.896,83,21.216z"/>
	<g>
		<circle fill="#252623" cx="24.432" cy="53.897" r="1.751"/>
		<path fill="#252623" d="M4.503,65.645c0.928-0.043,1.668-0.803,1.668-1.742c0-0.463-0.183-0.879-0.476-1.193l3.035-3.035
			c-0.342-0.318-0.559-0.77-0.559-1.275c0-0.967,0.784-1.75,1.751-1.75c0.505,0,0.956,0.217,1.275,0.559l2.035-2.035
			c0.313,0.293,0.73,0.477,1.193,0.477c0.967,0,1.751-0.785,1.751-1.752c0-0.463-0.183-0.879-0.476-1.193l3.035-3.035
			c-0.342-0.318-0.559-0.77-0.559-1.275c0-0.967,0.784-1.75,1.751-1.75c0.505,0,0.956,0.217,1.276,0.559l2.034-2.035
			c0.313,0.293,0.73,0.475,1.193,0.475c0.505,0,0.956-0.217,1.275-0.557l2.619,2.619c0.269-0.625,0.887-1.061,1.608-1.061
			c0.968,0,1.751,0.783,1.751,1.75c0,0.723-0.437,1.34-1.06,1.609l2.62,2.619c-0.342,0.318-0.559,0.771-0.559,1.275
			c0,0.967,0.783,1.752,1.751,1.752c0.967,0,1.751-0.785,1.751-1.752c0-0.463-0.183-0.879-0.476-1.193l37.556-37.555
			c0.313,0.293,0.73,0.476,1.192,0.476c0.502,0,0.952-0.214,1.271-0.553l22.587,22.774c0.229-0.7,0.88-1.209,1.657-1.209
			c0.967,0,1.751,0.784,1.751,1.751c0,0.781-0.517,1.437-1.224,1.661c0,0,4.121,4.041,4.121,4.055l4.189-4.418
			c-0.357-0.318-0.584-0.78-0.584-1.298c0-0.967,0.784-1.751,1.752-1.751c0.512,0,0.968,0.223,1.288,0.573l2.028-2.045
			c0.312,0.29,0.727,0.471,1.186,0.471c0.506,0,0.957-0.217,1.276-0.559l2.619,2.619c0.269-0.623,0.887-1.06,1.608-1.06
			c0.967,0,1.751,0.784,1.751,1.751c0,0.722-0.437,1.341-1.06,1.608l2.619,2.619c-0.342,0.318-0.559,0.771-0.559,1.275
			c0,0.967,0.783,1.75,1.75,1.75c0.506,0,0.957-0.217,1.276-0.557l2.619,2.619c0.269-0.625,0.887-1.061,1.608-1.061
			c0.967,0,1.751,0.783,1.751,1.75c0,0.723-0.437,1.34-1.06,1.609l2.619,2.619c-0.342,0.318-0.559,0.771-0.559,1.275
			c0,0.967,0.783,1.752,1.75,1.752c0.506,0,0.957-0.219,1.276-0.559l2.619,2.619c0.269-0.625,0.887-1.061,1.608-1.061v-6.504
			c-0.967,0-1.751-0.785-1.751-1.752c0-0.504,0.217-0.955,0.559-1.275l-7.538-7.537c-0.319,0.342-0.771,0.559-1.275,0.559
			c-0.967,0-1.751-0.785-1.751-1.751c0-0.505,0.217-0.956,0.558-1.276l-7.537-7.537c-0.319,0.342-0.771,0.559-1.275,0.559
			c-0.967,0-1.751-0.784-1.751-1.751c0-0.505,0.217-0.956,0.558-1.276l-7.537-7.537c-0.319,0.341-0.771,0.559-1.275,0.559
			c-0.46,0-0.875-0.181-1.188-0.471l-7.51,7.572c0.271,0.309,0.442,0.709,0.442,1.153c0,0.967-0.784,1.751-1.751,1.751
			c-0.968,0-1.752-0.784-1.752-1.751c0-0.444,0.171-0.845,0.443-1.153l-7.51-7.573c-0.313,0.29-0.729,0.472-1.188,0.472
			c-0.968,0-1.752-0.784-1.752-1.751c0-0.466,0.186-0.885,0.48-1.199l-7.502-7.564c-0.316,0.313-0.752,0.509-1.232,0.509
			c-0.968,0-1.752-0.784-1.752-1.752c0-0.485,0.199-0.925,0.52-1.242l-7.503-7.565c-0.319,0.339-0.769,0.553-1.271,0.553
			c-0.462,0-0.879-0.183-1.193-0.475l-7.537,7.537c0.292,0.313,0.475,0.73,0.475,1.192c0,0.968-0.784,1.752-1.751,1.752
			c-0.462,0-0.879-0.184-1.193-0.476L31.21,37.195c0.292,0.313,0.475,0.73,0.475,1.193c0,0.966-0.783,1.751-1.751,1.751
			c-0.967,0-1.751-0.785-1.751-1.751c0-0.505,0.217-0.956,0.559-1.276l-7.538-7.537c-0.32,0.342-0.771,0.559-1.276,0.559
			c-0.462,0-0.879-0.183-1.192-0.476l-7.538,7.537c0.293,0.313,0.476,0.73,0.476,1.193c0,0.966-0.784,1.751-1.751,1.751
			c-0.462,0-0.879-0.184-1.192-0.477l-7.538,7.539c0.293,0.312,0.476,0.73,0.476,1.191c0,0.939-0.74,1.699-1.668,1.744v6.52
			c0.928,0.045,1.668,0.805,1.668,1.742c0,0.939-0.74,1.699-1.668,1.744v6.52c0.928,0.045,1.668,0.805,1.668,1.742
			c0,0.939-0.74,1.699-1.668,1.744v1.037l4.503-4.6V65.645z M109.982,26.631c0.967,0,1.751,0.784,1.751,1.751
			s-0.784,1.751-1.751,1.751c-0.968,0-1.752-0.784-1.752-1.751S109.015,26.631,109.982,26.631z M69.958,6.619
			c0.967,0,1.75,0.784,1.75,1.751c0,0.968-0.783,1.752-1.75,1.752s-1.751-0.784-1.751-1.752C68.208,7.403,68.991,6.619,69.958,6.619
			z M19.929,36.637c0.968,0,1.751,0.784,1.751,1.751c0,0.966-0.783,1.751-1.751,1.751c-0.967,0-1.751-0.785-1.751-1.751
			C18.178,37.421,18.961,36.637,19.929,36.637z M9.923,46.643c0.967,0,1.751,0.783,1.751,1.75s-0.784,1.752-1.751,1.752
			s-1.751-0.785-1.751-1.752S8.956,46.643,9.923,46.643z"/>
		<path fill="#252623" d="M134.496,62.153c-0.622,0-1.166,0.326-1.476,0.816l2.075,2.572c0.672-0.246,1.152-0.883,1.152-1.639
			C136.248,62.936,135.464,62.153,134.496,62.153z"/>
	</g>
</g>
</svg>
